<svg aria-hidden="true" style="position: absolute; width: 0; height: 0; overflow: hidden;" version="1.1" xmlns="http://www.w3.org/2000/svg" xmlns:xlink="http://www.w3.org/1999/xlink">
<defs>
<symbol id="icon-computer" viewBox="0 0 39 32">
<path fill="#fed136" style="fill: var(--color1, #fed136)" d="M31.656 0h-25.324c-0 0-0.001 0-0.001 0-2.098 0-3.799 1.701-3.799 3.799v0 16.461c0 0.443 0.075 0.87 0.216 1.266h-0.216v2.532h3.799v-20.258h25.324v20.26h3.799v-2.535h-0.216c0.141-0.395 0.216-0.823 0.216-1.266v-16.46c0-2.098-1.7-3.798-3.798-3.799h-0zM2.533 26.59h32.922c1.398 0.001 2.532 1.134 2.532 2.533v0c0 1.399-2.4 2.532-3.799 2.532h-30.39c-1.399 0.001-3.799-1.132-3.799-2.531s1.133-2.532 2.532-2.533h0zM22.792 29.123h-7.598c-0.699 0-1.266 0.283-1.266 0.633s0.567 0.632 1.266 0.632h7.598c0.699 0 1.266-0.283 1.266-0.632s-0.567-0.633-1.266-0.633zM10.491 14.855l1.783-1.79c0.228-0.229 0.543-0.37 0.891-0.37s0.664 0.142 0.891 0.37l0 0 2.337 2.347 7.532-7.565c0.228-0.229 0.543-0.371 0.891-0.371s0.664 0.142 0.891 0.371l0 0 1.783 1.79c0.228 0.23 0.369 0.546 0.369 0.896s-0.141 0.666-0.369 0.896l0-0-9.805 9.848c-0.228 0.229-0.543 0.371-0.891 0.371-0.245 0-0.474-0.070-0.667-0.191l0.005 0.003c-0.088 0.022-0.189 0.035-0.294 0.035-0.348 0-0.664-0.142-0.891-0.371l-0-0-4.456-4.477c-0.228-0.23-0.369-0.546-0.369-0.895s0.141-0.665 0.369-0.895l-0 0z"></path>
</symbol>
<symbol id="icon-basket" viewBox="0 0 32 32">
<path fill="#fed136" style="fill: var(--color1, #fed136)" d="M28.327 31.25h-25.025l-0.978-16.944h26.98l-0.977 16.944zM9.036 18.826c-0.624 0-1.129 0.505-1.129 1.129v6.777c0.017 0.611 0.516 1.099 1.129 1.099s1.112-0.489 1.129-1.098l0-0.002v-6.777c0-0.624-0.505-1.129-1.129-1.13zM15.814 18.826c-0.624 0-1.13 0.505-1.13 1.129v6.777c0 0.624 0.506 1.13 1.13 1.13s1.13-0.506 1.13-1.13v0-6.777c0-0.624-0.505-1.129-1.13-1.13zM22.591 18.826c-0.624 0-1.13 0.505-1.13 1.129v6.777c0 0.624 0.506 1.13 1.13 1.13s1.13-0.506 1.13-1.13v0-6.777c0-0.624-0.506-1.129-1.13-1.13zM18.921 0.303c1.080-0.624 2.462-0.254 3.085 0.827l3.389 5.87c0.098 0.171 0.169 0.349 0.219 0.53h3.19c0.014-0 0.031-0 0.048-0 1.56 0 2.824 1.264 2.824 2.824s-1.264 2.824-2.824 2.824c-0.017 0-0.034-0-0.051-0l0.003 0h-25.982c-1.524-0.046-2.742-1.293-2.742-2.824s1.218-2.777 2.737-2.824l0.004-0h3.192c0.050-0.181 0.121-0.359 0.22-0.53l3.389-5.87c0.398-0.68 1.125-1.129 1.956-1.129 1.248 0 2.259 1.011 2.259 2.259 0 0.416-0.112 0.806-0.309 1.141l0.006-0.011-2.391 4.14h9.342l-2.392-4.141c-0.19-0.324-0.302-0.713-0.302-1.129 0-0.832 0.449-1.559 1.119-1.951l0.011-0.006z"></path>
</symbol>
<symbol id="icon-lock" viewBox="0 0 25 32">
<path fill="#fed136" style="fill: var(--color1, #fed136)" d="M12.522 0c3.585 0 6.492 2.543 6.492 5.681v6.493h0.813c1.345 0 2.435 1.090 2.435 2.435v0 8.927c0 1.345-1.090 2.435-2.435 2.435v0h-14.609c-1.345 0-2.435-1.090-2.435-2.435v0-8.927c0-1.345 1.090-2.435 2.435-2.435v0h0.811v-6.493c0-3.137 2.907-5.681 6.493-5.681zM15.583 12.174h-6.122c-0.116-0.238-0.184-0.517-0.185-0.812v-5.68c0-1.345 1.454-2.435 3.246-2.435 1.793 0 3.247 1.090 3.247 2.435v5.68c0 0.285-0.065 0.559-0.185 0.813zM14.145 20.666c0.977-0.572 1.623-1.616 1.623-2.811 0-1.793-1.453-3.246-3.246-3.246s-3.246 1.453-3.246 3.246c0 1.195 0.646 2.239 1.608 2.803l0.015 0.008v1.245c0 0.896 0.727 1.623 1.623 1.623s1.623-0.727 1.623-1.623v0-1.245z"></path>
</symbol>
<symbol id="icon-circle" viewBox="0 0 32 32">
<path fill="#fff" style="fill: var(--color2, #fff); stroke: var(--color1, #fed136)" stroke="#fed136" stroke-linejoin="miter" stroke-linecap="butt" stroke-miterlimit="4" stroke-width="1.3151" d="M16.234 0.741c8.382 0 15.177 6.795 15.177 15.176s-6.795 15.177-15.177 15.177c-8.382 0-15.177-6.795-15.177-15.177s6.795-15.176 15.177-15.176z"></path>
</symbol>
</defs>
</svg>
